<mxfile host="app.diagrams.net" modified="2023-04-26T13:35:21.252Z" agent="Mozilla/5.0 (Windows NT 10.0; Win64; x64) AppleWebKit/537.36 (KHTML, like Gecko) Chrome/112.0.0.0 Safari/537.36" etag="fPbHv0H0OmgcVjCXJbml" version="21.2.2" type="device">
  <diagram name="Pagina-1" id="sebUSosclePj-gqVCejn">
    <mxGraphModel dx="1235" dy="636" grid="1" gridSize="10" guides="1" tooltips="1" connect="1" arrows="1" fold="1" page="1" pageScale="1" pageWidth="827" pageHeight="1169" math="0" shadow="0">
      <root>
        <mxCell id="0" />
        <mxCell id="1" parent="0" />
        <mxCell id="SzkQ0bYjhIyVR5ZL1A9d-1" value="&lt;font style=&quot;font-size: 20px;&quot;&gt;vehicles&lt;/font&gt;" style="swimlane;childLayout=stackLayout;horizontal=1;startSize=50;horizontalStack=0;rounded=1;fontSize=14;fontStyle=0;strokeWidth=2;resizeParent=0;resizeLast=1;shadow=0;dashed=0;align=center;arcSize=4;whiteSpace=wrap;html=1;" vertex="1" parent="1">
          <mxGeometry x="220" y="20" width="400" height="600" as="geometry" />
        </mxCell>
        <mxCell id="SzkQ0bYjhIyVR5ZL1A9d-2" value="&lt;font style=&quot;font-size: 16px;&quot;&gt;Id - INT - PRIMARY KEY - AUTO INCREMENT&amp;nbsp;&lt;br&gt;&lt;br&gt;License_plate - VARCHAR(10)&lt;br&gt;&lt;br&gt;Name - VARCHAR(30)&lt;br&gt;&lt;br&gt;Brand - VARCHAR(30)&lt;br&gt;&lt;br&gt;Mileage - INT&lt;br&gt;&lt;br&gt;Condition - VARCHAR(255)&lt;br&gt;&lt;br&gt;Crashed -VARCHAR(255)&lt;br&gt;&lt;br&gt;Color - VARCHAR(50)&lt;br&gt;&lt;br&gt;Equipped_options - TEXT&lt;br&gt;&lt;br&gt;Carburation_type - VARCHAR(255)&lt;br&gt;&lt;br&gt;Doors_ammount - TINYINT&lt;br&gt;&lt;br&gt;Years_used - YEAR&lt;br&gt;&lt;br&gt;Release_year - DATE&lt;br&gt;&lt;br&gt;&lt;br&gt;&lt;br&gt;&lt;br&gt;&lt;br&gt;&lt;/font&gt;" style="align=left;strokeColor=none;fillColor=none;spacingLeft=4;fontSize=12;verticalAlign=top;resizable=0;rotatable=0;part=1;html=1;" vertex="1" parent="SzkQ0bYjhIyVR5ZL1A9d-1">
          <mxGeometry y="50" width="400" height="550" as="geometry" />
        </mxCell>
      </root>
    </mxGraphModel>
  </diagram>
</mxfile>
